<svg width="271" height="51" viewBox="0 0 271 51" fill="none" xmlns="http://www.w3.org/2000/svg">
<path d="M0.54 50V1.14H16.57V6.88L14.89 20.18L21.75 8.28L26.3 1.14H43.03L16.57 38.59V50H0.54ZM26.16 50L14.89 25.01L28.47 18.85L43.8 50H26.16ZM67.4173 50.84C63.0307 50.84 59.2273 49.79 56.0073 47.69C52.834 45.59 50.3607 42.65 48.5873 38.87C46.814 35.09 45.9273 30.6567 45.9273 25.57C45.9273 20.4367 46.814 15.98 48.5873 12.2C50.3607 8.42 52.834 5.50333 56.0073 3.45C59.2273 1.35 63.0073 0.299997 67.3473 0.299997C71.734 0.299997 75.514 1.35 78.6873 3.45C81.9073 5.50333 84.3807 8.42 86.1073 12.2C87.8807 15.98 88.7673 20.4367 88.7673 25.57C88.7673 30.6567 87.8807 35.09 86.1073 38.87C84.3807 42.65 81.9073 45.59 78.6873 47.69C75.514 49.79 71.7573 50.84 67.4173 50.84ZM67.3473 37.96C68.6073 37.96 69.634 37.4467 70.4273 36.42C71.2207 35.3933 71.7807 33.9467 72.1073 32.08C72.4807 30.2133 72.6673 28.0433 72.6673 25.57C72.6673 23.05 72.4807 20.88 72.1073 19.06C71.7807 17.1933 71.2207 15.7467 70.4273 14.72C69.634 13.6933 68.6073 13.18 67.3473 13.18C66.0873 13.18 65.0607 13.6933 64.2673 14.72C63.474 15.7467 62.8907 17.1933 62.5173 19.06C62.1907 20.88 62.0273 23.0267 62.0273 25.5C62.0273 28.02 62.1907 30.2133 62.5173 32.08C62.8907 33.9467 63.474 35.3933 64.2673 36.42C65.0607 37.4467 66.0873 37.96 67.3473 37.96ZM112.945 50.84C108.558 50.84 104.755 49.79 101.535 47.69C98.3614 45.59 95.888 42.65 94.1147 38.87C92.3414 35.09 91.4547 30.6567 91.4547 25.57C91.4547 20.4367 92.3414 15.98 94.1147 12.2C95.888 8.42 98.3614 5.50333 101.535 3.45C104.755 1.35 108.535 0.299997 112.875 0.299997C117.261 0.299997 121.041 1.35 124.215 3.45C127.435 5.50333 129.908 8.42 131.635 12.2C133.408 15.98 134.295 20.4367 134.295 25.57C134.295 30.6567 133.408 35.09 131.635 38.87C129.908 42.65 127.435 45.59 124.215 47.69C121.041 49.79 117.285 50.84 112.945 50.84ZM112.875 37.96C114.135 37.96 115.161 37.4467 115.955 36.42C116.748 35.3933 117.308 33.9467 117.635 32.08C118.008 30.2133 118.195 28.0433 118.195 25.57C118.195 23.05 118.008 20.88 117.635 19.06C117.308 17.1933 116.748 15.7467 115.955 14.72C115.161 13.6933 114.135 13.18 112.875 13.18C111.615 13.18 110.588 13.6933 109.795 14.72C109.001 15.7467 108.418 17.1933 108.045 19.06C107.718 20.88 107.555 23.0267 107.555 25.5C107.555 28.02 107.718 30.2133 108.045 32.08C108.418 33.9467 109.001 35.3933 109.795 36.42C110.588 37.4467 111.615 37.96 112.875 37.96ZM137.122 50V1.14H153.152V6.88L151.472 20.18L158.332 8.28L162.882 1.14H179.612L153.152 38.59V50H137.122ZM162.742 50L151.472 25.01L165.052 18.85L180.382 50H162.742ZM184.329 50V1.14H222.969V14.02H200.359V19.06H214.429V31.31H200.359V37.12H223.249V50H184.329ZM228.877 50V1.14H245.957C250.063 1.14 253.657 1.79333 256.737 3.1C259.863 4.36 262.453 6.11 264.507 8.35C266.56 10.59 268.1 13.18 269.127 16.12C270.2 19.0133 270.737 22.1167 270.737 25.43C270.737 28.79 270.2 31.9633 269.127 34.95C268.1 37.89 266.56 40.5033 264.507 42.79C262.453 45.03 259.863 46.8033 256.737 48.11C253.657 49.37 250.063 50 245.957 50H228.877ZM244.907 37.12H246.027C247.427 37.12 248.757 36.7 250.017 35.86C251.277 35.02 252.303 33.7367 253.097 32.01C253.937 30.2833 254.357 28.09 254.357 25.43C254.357 22.77 253.937 20.6 253.097 18.92C252.303 17.24 251.277 16.0033 250.017 15.21C248.757 14.4167 247.427 14.02 246.027 14.02H244.907V37.12Z" fill="black"/>
</svg>
